<svg preserveAspectRatio="none" data-bbox="18.998 41 147.288 122.855" xmlns="http://www.w3.org/2000/svg" viewBox="18.998 41 147.288 122.855" role="presentation" aria-hidden="true" aria-label="">
    <g>
        <path d="M165.774 41h-.257a85.437 85.437 0 0 1-3.5 17.012c-1.705 5.436-3.936 10.703-6.629 15.583-5.382 9.766-12.619 18.247-20.993 24.866-8.37 6.629-17.866 11.44-27.671 14.161-4.903 1.364-9.666 2.225-14.621 2.574-4.82.342-10.103.213-14.103-.362V95.726L18.998 129.79 78 163.855v-19.187c6-.631 12.907-1.887 19.189-3.748 6.409-1.897 12.455-4.42 18.253-7.494a97.39 97.39 0 0 0 29.673-24.263c8.017-9.758 13.904-20.921 17.387-32.565 1.745-5.821 2.875-11.888 3.418-17.817.543-5.93.472-11.781-.146-17.781z"></path>
    </g>
</svg>