<svg preserveAspectRatio="none" data-bbox="20 20 160 160" viewBox="20 20 160 160" height="200" width="200" xmlns="http://www.w3.org/2000/svg" data-type="shape" role="presentation" aria-hidden="true">
    <g>
        <path d="M178.784 173.056L105.728 100l73.056-73.056c1.621-1.621 1.621-4.107 0-5.728s-4.107-1.621-5.728 0L100 94.272 26.944 21.216c-1.621-1.621-4.107-1.621-5.728 0-1.621 1.621-1.621 4.107 0 5.728L94.272 100l-73.056 73.056c-1.621 1.621-1.621 4.107 0 5.728 1.621 1.621 4.107 1.621 5.728 0L100 105.728l73.056 73.056c1.621 1.621 4.107 1.621 5.728 0 1.621-1.621 1.621-4.107 0-5.728z"></path>
    </g>
</svg>